<?xml version="1.0" standalone="no"?><!DOCTYPE svg PUBLIC "-//W3C//DTD SVG 1.1//EN" "http://www.w3.org/Graphics/SVG/1.1/DTD/svg11.dtd"><svg t="1534253537929" class="icon" style="" viewBox="0 0 1024 1024" version="1.1" xmlns="http://www.w3.org/2000/svg" p-id="3693" xmlns:xlink="http://www.w3.org/1999/xlink" width="24" height="24"><defs><style type="text/css"></style></defs><path d="M793.6 28.5c37.3-37.1 97.7-37.2 134.9 0l67.4 67.2c37.3 37.1 37.3 97.4 0 134.5L248.3 975.7c-28.1 28-77.5 47.2-117.2 45.4l-81.6-3.6-43.7-1.9-1.9-43.5-3.6-81.3c-1.7-39.6 17.5-88.9 45.6-116.9L793.6 28.5z" fill="#666666" p-id="3694"></path><path d="M827.4 62.2c18.6-18.6 48.8-18.6 67.5 0l67.4 67.2c18.6 18.6 18.6 48.7 0 67.3L214.6 942.1c-18.6 18.6-55.1 32.7-81.4 31.5l-81.6-3.6-3.6-81.3c-1.2-26.2 13-62.6 31.6-81.2l747.8-745.3z" fill="#F9F1FF" p-id="3695"></path><path d="M747 198.7l81.8 81.5-67.5 67.3-81.8-81.5z" fill="#FEFCEA" p-id="3696"></path></svg>
