<?xml version="1.0" standalone="no"?><!DOCTYPE svg PUBLIC "-//W3C//DTD SVG 1.1//EN" "http://www.w3.org/Graphics/SVG/1.1/DTD/svg11.dtd"><svg t="1534255841705" class="icon" style="" viewBox="0 0 1024 1024" version="1.1" xmlns="http://www.w3.org/2000/svg" p-id="10966" xmlns:xlink="http://www.w3.org/1999/xlink" width="48" height="48"><defs><style type="text/css"></style></defs><path d="M391.054222 738.872889L279.893333 637.155556a43.576889 43.576889 0 0 1 0-61.44l307.2-307.2a43.576889 43.576889 0 0 1 61.44 0l112.526223 112.526222a43.463111 43.463111 0 0 1 0 61.44l-304.469334 295.822222z" fill="#E1E1E6" p-id="10968"></path><path d="M530.545778 673.109333L356.579556 499.143111l153.827555-153.827555 173.966222 173.966222" fill="#FABD6B" p-id="10969"></path><path d="M456.476444 750.250667h-65.422222a11.377778 11.377778 0 0 1-7.736889-2.958223l-111.160889-101.717333a55.068444 55.068444 0 0 1 0-77.937778l307.2-307.2a54.954667 54.954667 0 0 1 77.482667 0l112.526222 112.526223a54.840889 54.840889 0 0 1 0 77.482666l-304.583111 295.822222a11.377778 11.377778 0 0 1-8.305778 3.982223z m-60.984888-22.755556h56.888888l300.714667-292.977778a32.199111 32.199111 0 0 0 0-45.511111L640.568889 276.48a32.085333 32.085333 0 0 0-45.511111 0l-307.2 307.2a32.199111 32.199111 0 0 0 0 45.511111z" fill="#464C63" p-id="10970"></path><path d="M425.528889 508.814222a11.377778 11.377778 0 0 1-8.078222-19.569778l75.548444-75.548444a11.377778 11.377778 0 0 1 16.042667 16.042667l-75.548445 75.548444a11.377778 11.377778 0 0 1-7.964444 3.527111z" fill="#FFFFFF" p-id="10972"></path></svg>
